<?xml version="1.0" encoding="UTF-8" standalone="no"?>
<!DOCTYPE svg PUBLIC "-//W3C//DTD SVG 1.1//EN" "http://www.w3.org/Graphics/SVG/1.1/DTD/svg11.dtd">
<svg version="1.1" xmlns="http://www.w3.org/2000/svg" xmlns:xlink="http://www.w3.org/1999/xlink" preserveAspectRatio="xMidYMid meet" viewBox="0 0 640 640" width="640" height="640"><defs><path d="M607.49 599.79C607.49 621.36 483.66 638.88 331.13 638.88C178.6 638.88 54.77 621.36 54.77 599.79C54.77 578.22 178.6 560.7 331.13 560.7C483.66 560.7 607.49 578.22 607.49 599.79Z" id="c2c5bfu4wD"></path><path d="" id="dapSUfGEd"></path><path d="M517.37 550.67C517.37 580.25 499.92 604.26 478.42 604.26C456.93 604.26 439.48 580.25 439.48 550.67C439.48 521.09 456.93 497.08 478.42 497.08C499.92 497.08 517.37 521.09 517.37 550.67Z" id="asLFHjsjU"></path><path d="M238.62 545.7C238.62 574.17 221.17 597.29 199.68 597.29C178.18 597.29 160.73 574.17 160.73 545.7C160.73 517.23 178.18 494.11 199.68 494.11C221.17 494.11 238.62 517.23 238.62 545.7Z" id="b13qMRG4gS"></path><path d="M529.56 398.18C531.16 510.26 443.56 602.6 334.05 604.24C224.53 605.88 134.32 516.21 132.71 404.12C131.1 292.03 218.7 199.7 328.22 198.06C437.73 196.42 527.95 286.09 529.56 398.18Z" id="aMygmHoaQ"></path><path d="M459.5 233.51C460.69 316.13 414.57 384.26 327.2 385.57C239.83 386.88 189.07 320.87 187.88 238.25C186.69 155.63 235.53 87.49 322.9 86.19C410.27 84.88 458.31 150.89 459.5 233.51Z" id="c2x8kX86mr"></path><path d="M278.12 86.79C258.73 67.53 246.61 55.49 241.76 50.68C233.11 42.08 218.4 48.35 218.6 60.55C218.23 38.26 218.33 44.13 218.9 78.16C219.16 93.41 219.39 106.89 219.59 118.61L278.12 86.79Z" id="b2wq0ceo"></path><path d="M319.27 278.95L353.36 278L324.5 290.79L294.88 278L319.27 278.95Z" id="d5j4C22Mv"></path><path d="M298.59 206.35C298.76 218.23 288.76 228.03 276.28 228.22C263.8 228.4 253.52 218.91 253.35 207.03C253.18 195.15 263.18 185.35 275.66 185.17C288.15 184.98 298.42 194.47 298.59 206.35Z" id="b7SzjK2BI"></path><path d="M394.35 204.92C394.52 216.8 384.53 226.6 372.04 226.78C359.56 226.97 349.29 217.48 349.12 205.6C348.95 193.72 358.94 183.92 371.43 183.73C383.91 183.55 394.18 193.04 394.35 204.92Z" id="a4MdiK6ocd"></path><path d="M294.78 197.9C294.85 202.6 290.66 206.47 285.44 206.55C280.21 206.63 275.92 202.88 275.85 198.18C275.78 193.49 279.97 189.61 285.19 189.53C290.42 189.45 294.72 193.2 294.78 197.9Z" id="d2wRkAWesT"></path><path d="M390.55 196.46C390.62 201.16 386.43 205.04 381.2 205.12C375.98 205.19 371.68 201.44 371.61 196.75C371.55 192.05 375.73 188.17 380.96 188.1C386.18 188.02 390.48 191.77 390.55 196.46Z" id="aWkG8vZzM"></path><path d="M271.91 216.77C271.95 220.08 269.17 222.82 265.68 222.87C262.2 222.92 259.33 220.27 259.28 216.96C259.24 213.64 262.03 210.91 265.51 210.85C268.99 210.8 271.86 213.45 271.91 216.77Z" id="d2PbWCvNkM"></path><path d="M367.63 214.83C367.65 216.49 365.79 217.86 363.47 217.9C361.14 217.93 359.24 216.62 359.21 214.96C359.19 213.3 361.06 211.93 363.38 211.89C365.7 211.86 367.61 213.17 367.63 214.83Z" id="bgkAxWzeQ"></path><path d="M351.71 332C347 335.64 342.22 337.45 337.36 337.45C332.51 337.45 327.59 336.62 322.6 334.95C317.4 336.62 312.33 337.45 307.36 337.45C302.4 337.45 297.55 335.64 292.82 332" id="bB1MzAIG8"></path><path d="M337.18 568.45C339.56 598.93 324.09 625.03 302.66 626.71C281.23 628.38 261.9 604.99 259.52 574.51C257.15 544.03 272.61 517.92 294.04 516.25C315.47 514.58 334.8 537.97 337.18 568.45Z" id="a9BvEwdzA"></path><path d="M324.5 617.29C324.5 619.22 322.48 620.79 320 620.79C317.52 620.79 315.5 619.22 315.5 617.29C315.5 615.36 317.52 613.79 320 613.79C322.48 613.79 324.5 615.36 324.5 617.29Z" id="aQN63L8q0"></path><path d="M416.27 577.8C412.8 609.05 392.63 632.5 371.27 630.12C349.9 627.75 335.38 600.44 338.86 569.19C342.33 537.93 362.5 514.49 383.86 516.86C405.23 519.24 419.75 546.54 416.27 577.8Z" id="b2kxjdodFr"></path><path d="M304 623.29C304 625.22 301.98 626.79 299.5 626.79C297.02 626.79 295 625.22 295 623.29C295 621.36 297.02 619.79 299.5 619.79C301.98 619.79 304 621.36 304 623.29Z" id="c1XBZAuUnT"></path><path d="M287 615.79C287 617.72 284.98 619.29 282.5 619.29C280.02 619.29 278 617.72 278 615.79C278 613.86 280.02 612.29 282.5 612.29C284.98 612.29 287 613.86 287 615.79Z" id="a5y3x8tTl"></path><path d="M398 617.29C398 619.22 395.98 620.79 393.5 620.79C391.02 620.79 389 619.22 389 617.29C389 615.36 391.02 613.79 393.5 613.79C395.98 613.79 398 615.36 398 617.29Z" id="a2NiYTF3Me"></path><path d="M359.5 617.29C359.5 619.22 357.48 620.79 355 620.79C352.52 620.79 350.5 619.22 350.5 617.29C350.5 615.36 352.52 613.79 355 613.79C357.48 613.79 359.5 615.36 359.5 617.29Z" id="a17V0kQ8A8"></path><path d="M377.57 626.79C377.57 628.72 375.55 630.29 373.07 630.29C370.58 630.29 368.57 628.72 368.57 626.79C368.57 624.86 370.58 623.29 373.07 623.29C375.55 623.29 377.57 624.86 377.57 626.79Z" id="c8nOLyz79I"></path><path d="M464 597.29C464 599.22 461.98 600.79 459.5 600.79C457.02 600.79 455 599.22 455 597.29C455 595.36 457.02 593.79 459.5 593.79C461.98 593.79 464 595.36 464 597.29Z" id="c73i46VuX"></path><path d="M483.38 603.29C483.38 605.22 481.36 606.79 478.88 606.79C476.4 606.79 474.38 605.22 474.38 603.29C474.38 601.36 476.4 599.79 478.88 599.79C481.36 599.79 483.38 601.36 483.38 603.29Z" id="c11FPEe1O8"></path><path d="M500.88 599.79C500.88 601.72 498.86 603.29 496.38 603.29C493.9 603.29 491.88 601.72 491.88 599.79C491.88 597.86 493.9 596.29 496.38 596.29C498.86 596.29 500.88 597.86 500.88 599.79Z" id="guhQcg8p6"></path><path d="M218.88 589.29C218.88 591.22 216.86 592.79 214.38 592.79C211.9 592.79 209.88 591.22 209.88 589.29C209.88 587.36 211.9 585.79 214.38 585.79C216.86 585.79 218.88 587.36 218.88 589.29Z" id="c11UXYGzQ"></path><path d="M202.88 593.79C202.88 595.72 200.86 597.29 198.38 597.29C195.9 597.29 193.88 595.72 193.88 593.79C193.88 591.86 195.9 590.29 198.38 590.29C200.86 590.29 202.88 591.86 202.88 593.79Z" id="aICVAJfbo"></path><path d="M187.88 592.79C187.88 594.72 185.86 596.29 183.38 596.29C180.9 596.29 178.88 594.72 178.88 592.79C178.88 590.86 180.9 589.29 183.38 589.29C185.86 589.29 187.88 590.86 187.88 592.79Z" id="aMIx6Titt"></path><path d="M379.55 85.09C400.77 67.86 414.04 57.1 419.35 52.8C428.82 45.11 442.83 52.83 441.4 64.94C444.01 42.8 443.32 48.63 439.34 82.43C437.55 97.58 435.97 110.97 434.6 122.61L379.55 85.09Z" id="b1qwsSYrga"></path><path d="M147.08 545.7C147.08 572.47 124.9 594.2 97.58 594.2C70.26 594.2 48.08 572.47 48.08 545.7C48.08 518.93 70.26 497.2 97.58 497.2C124.9 497.2 147.08 518.93 147.08 545.7Z" id="b3VhdKsrIk"></path></defs><g><g><g><use xlink:href="#c2c5bfu4wD" opacity="1" fill="#ddcdb1" fill-opacity="1"></use></g><g><g><use xlink:href="#dapSUfGEd" opacity="1" fill-opacity="0" stroke="#9f5b1b" stroke-width="1" stroke-opacity="1"></use></g></g><g><use xlink:href="#asLFHjsjU" opacity="1" fill="#714a00" fill-opacity="1"></use><g><filter id="shadow9586490" x="371.48" y="429.08" width="241.89" height="251.18" filterUnits="userSpaceOnUse" primitiveUnits="userSpaceOnUse"><feFlood></feFlood><feComposite in2="SourceAlpha" operator="out"></feComposite><feGaussianBlur stdDeviation="4.12"></feGaussianBlur><feOffset dx="28" dy="8" result="afterOffset"></feOffset><feFlood flood-color="#1c160d" flood-opacity="1"></feFlood><feComposite in2="afterOffset" operator="in"></feComposite><feMorphology operator="dilate" radius="1"></feMorphology><feComposite in2="SourceAlpha" operator="in"></feComposite></filter><path d="M517.37 550.67C517.37 580.25 499.92 604.26 478.42 604.26C456.93 604.26 439.48 580.25 439.48 550.67C439.48 521.09 456.93 497.08 478.42 497.08C499.92 497.08 517.37 521.09 517.37 550.67Z" id="b1Z8reWAuW" fill="white" fill-opacity="1" filter="url(#shadow9586490)"></path></g></g><g><use xlink:href="#b13qMRG4gS" opacity="1" fill="#714a00" fill-opacity="1"></use><g><filter id="shadow8170909" x="83.73" y="417.11" width="245.89" height="263.18" filterUnits="userSpaceOnUse" primitiveUnits="userSpaceOnUse"><feFlood></feFlood><feComposite in2="SourceAlpha" operator="out"></feComposite><feGaussianBlur stdDeviation="5.1"></feGaussianBlur><feOffset dx="14" dy="-6" result="afterOffset"></feOffset><feFlood flood-color="#29220c" flood-opacity="1"></feFlood><feComposite in2="afterOffset" operator="in"></feComposite><feMorphology operator="dilate" radius="6"></feMorphology><feComposite in2="SourceAlpha" operator="in"></feComposite></filter><path d="M238.62 545.7C238.62 574.17 221.17 597.29 199.68 597.29C178.18 597.29 160.73 574.17 160.73 545.7C160.73 517.23 178.18 494.11 199.68 494.11C221.17 494.11 238.62 517.23 238.62 545.7Z" id="cKyINiRd1" fill="white" fill-opacity="1" filter="url(#shadow8170909)"></path></g></g><g><use xlink:href="#aMygmHoaQ" opacity="1" fill="#714a00" fill-opacity="1"></use><g><use xlink:href="#aMygmHoaQ" opacity="1" fill-opacity="0" stroke="#9f5d1e" stroke-width="0" stroke-opacity="1"></use></g><g><filter id="shadow15402747" x="-15.32" y="50.04" width="731.89" height="755.22" filterUnits="userSpaceOnUse" primitiveUnits="userSpaceOnUse"><feFlood></feFlood><feComposite in2="SourceAlpha" operator="out"></feComposite><feGaussianBlur stdDeviation="6.4"></feGaussianBlur><feOffset dx="39" dy="-53" result="afterOffset"></feOffset><feFlood flood-color="#35290f" flood-opacity="1"></feFlood><feComposite in2="afterOffset" operator="in"></feComposite><feMorphology operator="dilate" radius="8"></feMorphology><feComposite in2="SourceAlpha" operator="in"></feComposite></filter><path d="M529.56 398.18C531.16 510.26 443.56 602.6 334.05 604.24C224.53 605.88 134.32 516.21 132.71 404.12C131.1 292.03 218.7 199.7 328.22 198.06C437.73 196.42 527.95 286.09 529.56 398.18Z" id="a1JO3kv7oA" fill="white" fill-opacity="1" filter="url(#shadow15402747)"></path></g></g><g><use xlink:href="#c2x8kX86mr" opacity="1" fill="#714a00" fill-opacity="1"></use><g><use xlink:href="#c2x8kX86mr" opacity="1" fill-opacity="0" stroke="#9f5d1e" stroke-width="0" stroke-opacity="1"></use></g><g><filter id="shadow2146051" x="103.86" y="2.17" width="469.66" height="484.42" filterUnits="userSpaceOnUse" primitiveUnits="userSpaceOnUse"><feFlood></feFlood><feComposite in2="SourceAlpha" operator="out"></feComposite><feGaussianBlur stdDeviation="4.58"></feGaussianBlur><feOffset dx="30" dy="-17" result="afterOffset"></feOffset><feFlood flood-color="#261c07" flood-opacity="1"></feFlood><feComposite in2="afterOffset" operator="in"></feComposite><feMorphology operator="dilate" radius="7"></feMorphology><feComposite in2="SourceAlpha" operator="in"></feComposite></filter><path d="M459.5 233.51C460.69 316.13 414.57 384.26 327.2 385.57C239.83 386.88 189.07 320.87 187.88 238.25C186.69 155.63 235.53 87.49 322.9 86.19C410.27 84.88 458.31 150.89 459.5 233.51Z" id="b2GUcV4HEX" fill="white" fill-opacity="1" filter="url(#shadow2146051)"></path></g></g><g><use xlink:href="#b2wq0ceo" opacity="1" fill="#714a00" fill-opacity="1"></use><g><use xlink:href="#b2wq0ceo" opacity="1" fill-opacity="0" stroke="#714a00" stroke-width="0" stroke-opacity="1"></use></g><g><filter id="shadow752289" x="192.38" y="20.7" width="123.74" height="127.91" filterUnits="userSpaceOnUse" primitiveUnits="userSpaceOnUse"><feFlood></feFlood><feComposite in2="SourceAlpha" operator="out"></feComposite><feGaussianBlur stdDeviation="2"></feGaussianBlur><feOffset dx="12" dy="-4" result="afterOffset"></feOffset><feFlood flood-color="#271f0d" flood-opacity="1"></feFlood><feComposite in2="afterOffset" operator="in"></feComposite><feMorphology operator="dilate" radius="1"></feMorphology><feComposite in2="SourceAlpha" operator="in"></feComposite></filter><path d="M278.12 86.79C258.73 67.53 246.61 55.49 241.76 50.68C233.11 42.08 218.4 48.35 218.6 60.55C218.23 38.26 218.33 44.13 218.9 78.16C219.16 93.41 219.39 106.89 219.59 118.61L278.12 86.79Z" id="c7VE8C5p2" fill="white" fill-opacity="1" filter="url(#shadow752289)"></path></g></g><g><use xlink:href="#d5j4C22Mv" opacity="1" fill="#000000" fill-opacity="1"></use><g><use xlink:href="#d5j4C22Mv" opacity="1" fill-opacity="0" stroke="#000000" stroke-width="0" stroke-opacity="1"></use></g></g><g><use xlink:href="#b7SzjK2BI" opacity="1" fill="#000000" fill-opacity="1"></use><g><use xlink:href="#b7SzjK2BI" opacity="1" fill-opacity="0" stroke="#a89163" stroke-width="0" stroke-opacity="1"></use></g></g><g><use xlink:href="#a4MdiK6ocd" opacity="1" fill="#000000" fill-opacity="1"></use><g><use xlink:href="#a4MdiK6ocd" opacity="1" fill-opacity="0" stroke="#a89163" stroke-width="0" stroke-opacity="1"></use></g></g><g><use xlink:href="#d2wRkAWesT" opacity="1" fill="#ffffff" fill-opacity="1"></use><g><use xlink:href="#d2wRkAWesT" opacity="1" fill-opacity="0" stroke="#a89163" stroke-width="0" stroke-opacity="1"></use></g></g><g><use xlink:href="#aWkG8vZzM" opacity="1" fill="#ffffff" fill-opacity="1"></use><g><use xlink:href="#aWkG8vZzM" opacity="1" fill-opacity="0" stroke="#a89163" stroke-width="0" stroke-opacity="1"></use></g></g><g><use xlink:href="#d2PbWCvNkM" opacity="1" fill="#ffffff" fill-opacity="1"></use><g><use xlink:href="#d2PbWCvNkM" opacity="1" fill-opacity="0" stroke="#a89163" stroke-width="0" stroke-opacity="1"></use></g></g><g><use xlink:href="#bgkAxWzeQ" opacity="1" fill="#ffffff" fill-opacity="1"></use><g><use xlink:href="#bgkAxWzeQ" opacity="1" fill-opacity="0" stroke="#a89163" stroke-width="0" stroke-opacity="1"></use></g></g><g><g><use xlink:href="#bB1MzAIG8" opacity="1" fill-opacity="0" stroke="#000000" stroke-width="5" stroke-opacity="1"></use></g></g><g><use xlink:href="#a9BvEwdzA" opacity="1" fill="#714a00" fill-opacity="1"></use><g><use xlink:href="#a9BvEwdzA" opacity="1" fill-opacity="0" stroke="#000000" stroke-width="0" stroke-opacity="1"></use></g><g><filter id="shadow13220959" x="198.28" y="455.17" width="217.14" height="243.62" filterUnits="userSpaceOnUse" primitiveUnits="userSpaceOnUse"><feFlood></feFlood><feComposite in2="SourceAlpha" operator="out"></feComposite><feGaussianBlur stdDeviation="4.36"></feGaussianBlur><feOffset dx="17" dy="-11" result="afterOffset"></feOffset><feFlood flood-color="#1a1408" flood-opacity="1"></feFlood><feComposite in2="afterOffset" operator="in"></feComposite><feMorphology operator="dilate" radius="1"></feMorphology><feComposite in2="SourceAlpha" operator="in"></feComposite></filter><path d="M337.18 568.45C339.56 598.93 324.09 625.03 302.66 626.71C281.23 628.38 261.9 604.99 259.52 574.51C257.15 544.03 272.61 517.92 294.04 516.25C315.47 514.58 334.8 537.97 337.18 568.45Z" id="a1TNGwpRM8" fill="white" fill-opacity="1" filter="url(#shadow13220959)"></path></g></g><g><use xlink:href="#aQN63L8q0" opacity="1" fill="#000000" fill-opacity="1"></use><g><use xlink:href="#aQN63L8q0" opacity="1" fill-opacity="0" stroke="#000000" stroke-width="6" stroke-opacity="1"></use></g></g><g><use xlink:href="#b2kxjdodFr" opacity="1" fill="#714a00" fill-opacity="1"></use><g><use xlink:href="#b2kxjdodFr" opacity="1" fill-opacity="0" stroke="#000000" stroke-width="0" stroke-opacity="1"></use></g><g><filter id="shadow5679268" x="277.34" y="455.7" width="217.44" height="248.59" filterUnits="userSpaceOnUse" primitiveUnits="userSpaceOnUse"><feFlood></feFlood><feComposite in2="SourceAlpha" operator="out"></feComposite><feGaussianBlur stdDeviation="4.36"></feGaussianBlur><feOffset dx="17" dy="-13" result="afterOffset"></feOffset><feFlood flood-color="#1d170d" flood-opacity="1"></feFlood><feComposite in2="afterOffset" operator="in"></feComposite><feMorphology operator="dilate" radius="1"></feMorphology><feComposite in2="SourceAlpha" operator="in"></feComposite></filter><path d="M416.27 577.8C412.8 609.05 392.63 632.5 371.27 630.12C349.9 627.75 335.38 600.44 338.86 569.19C342.33 537.93 362.5 514.49 383.86 516.86C405.23 519.24 419.75 546.54 416.27 577.8Z" id="b1e3J9QzDW" fill="white" fill-opacity="1" filter="url(#shadow5679268)"></path></g></g><g><use xlink:href="#c1XBZAuUnT" opacity="1" fill="#000000" fill-opacity="1"></use><g><use xlink:href="#c1XBZAuUnT" opacity="1" fill-opacity="0" stroke="#000000" stroke-width="5" stroke-opacity="1"></use></g></g><g><use xlink:href="#a5y3x8tTl" opacity="1" fill="#000000" fill-opacity="1"></use><g><use xlink:href="#a5y3x8tTl" opacity="1" fill-opacity="0" stroke="#000000" stroke-width="5" stroke-opacity="1"></use></g></g><g><use xlink:href="#a2NiYTF3Me" opacity="1" fill="#000000" fill-opacity="1"></use><g><use xlink:href="#a2NiYTF3Me" opacity="1" fill-opacity="0" stroke="#000000" stroke-width="5" stroke-opacity="1"></use></g></g><g><use xlink:href="#a17V0kQ8A8" opacity="1" fill="#000000" fill-opacity="1"></use><g><use xlink:href="#a17V0kQ8A8" opacity="1" fill-opacity="0" stroke="#000000" stroke-width="5" stroke-opacity="1"></use></g></g><g><use xlink:href="#c8nOLyz79I" opacity="1" fill="#000000" fill-opacity="1"></use><g><use xlink:href="#c8nOLyz79I" opacity="1" fill-opacity="0" stroke="#000000" stroke-width="6" stroke-opacity="1"></use></g></g><g><use xlink:href="#c73i46VuX" opacity="1" fill="#000000" fill-opacity="1"></use><g><use xlink:href="#c73i46VuX" opacity="1" fill-opacity="0" stroke="#000000" stroke-width="5" stroke-opacity="1"></use></g></g><g><use xlink:href="#c11FPEe1O8" opacity="1" fill="#000000" fill-opacity="1"></use><g><use xlink:href="#c11FPEe1O8" opacity="1" fill-opacity="0" stroke="#000000" stroke-width="5" stroke-opacity="1"></use></g></g><g><use xlink:href="#guhQcg8p6" opacity="1" fill="#000000" fill-opacity="1"></use><g><use xlink:href="#guhQcg8p6" opacity="1" fill-opacity="0" stroke="#000000" stroke-width="5" stroke-opacity="1"></use></g></g><g><use xlink:href="#c11UXYGzQ" opacity="1" fill="#000000" fill-opacity="1"></use><g><use xlink:href="#c11UXYGzQ" opacity="1" fill-opacity="0" stroke="#000000" stroke-width="5" stroke-opacity="1"></use></g></g><g><use xlink:href="#aICVAJfbo" opacity="1" fill="#000000" fill-opacity="1"></use><g><use xlink:href="#aICVAJfbo" opacity="1" fill-opacity="0" stroke="#000000" stroke-width="5" stroke-opacity="1"></use></g></g><g><use xlink:href="#aMIx6Titt" opacity="1" fill="#000000" fill-opacity="1"></use><g><use xlink:href="#aMIx6Titt" opacity="1" fill-opacity="0" stroke="#000000" stroke-width="5" stroke-opacity="1"></use></g></g><g><use xlink:href="#b1qwsSYrga" opacity="1" fill="#714a00" fill-opacity="1"></use><g><use xlink:href="#b1qwsSYrga" opacity="1" fill-opacity="0" stroke="#714a00" stroke-width="0" stroke-opacity="1"></use></g><g><filter id="shadow5008652" x="353.55" y="23.72" width="127.4" height="128.89" filterUnits="userSpaceOnUse" primitiveUnits="userSpaceOnUse"><feFlood></feFlood><feComposite in2="SourceAlpha" operator="out"></feComposite><feGaussianBlur stdDeviation="2"></feGaussianBlur><feOffset dx="12" dy="-4" result="afterOffset"></feOffset><feFlood flood-color="#2d230d" flood-opacity="1"></feFlood><feComposite in2="afterOffset" operator="in"></feComposite><feMorphology operator="dilate" radius="1"></feMorphology><feComposite in2="SourceAlpha" operator="in"></feComposite></filter><path d="M379.55 85.09C400.77 67.86 414.04 57.1 419.35 52.8C428.82 45.11 442.83 52.83 441.4 64.94C444.01 42.8 443.32 48.63 439.34 82.43C437.55 97.58 435.97 110.97 434.6 122.61L379.55 85.09Z" id="a3y7GyOzfI" fill="white" fill-opacity="1" filter="url(#shadow5008652)"></path></g></g><g><use xlink:href="#b3VhdKsrIk" opacity="1" fill="#c02626" fill-opacity="1"></use><g><filter id="shadow8857670" x="4.08" y="453.2" width="205" height="196" filterUnits="userSpaceOnUse" primitiveUnits="userSpaceOnUse"><feFlood></feFlood><feComposite in2="SourceAlpha" operator="out"></feComposite><feGaussianBlur stdDeviation="3.16"></feGaussianBlur><feOffset dx="18" dy="-11" result="afterOffset"></feOffset><feFlood flood-color="#412222" flood-opacity="0.8"></feFlood><feComposite in2="afterOffset" operator="in"></feComposite><feMorphology operator="dilate" radius="1"></feMorphology><feComposite in2="SourceAlpha" operator="in"></feComposite></filter><path d="M147.08 545.7C147.08 572.47 124.9 594.2 97.58 594.2C70.26 594.2 48.08 572.47 48.08 545.7C48.08 518.93 70.26 497.2 97.58 497.2C124.9 497.2 147.08 518.93 147.08 545.7Z" id="b1ykdKuw6i" fill="white" fill-opacity="1" filter="url(#shadow8857670)"></path></g></g></g></g></svg>